<svg width="245" height="50" viewBox="0 0 245 50" fill="none" xmlns="http://www.w3.org/2000/svg">
  <g clip-path="url(#clip0_0_1)">
    <path d="M50 26.2366C49.3531 39.471 38.4122 50.005 25 50.005C11.5878 50.005 0.646857 39.471 0 26.2366H50Z"
      fill="#1A54F4" />
    <path d="M0 23.7634C0.646857 10.529 11.5929 0 25 0C38.4071 0 49.3582 10.529 50 23.7634H0Z" fill="#1A54F4" />
    <path
      d="M7.65625 26.2366H42.354C41.7223 35.2564 34.1976 42.3733 25.0051 42.3733C15.8127 42.3733 8.28795 35.2564 7.65625 26.2366Z"
      fill="white" />
    <path
      d="M42.349 23.7634H7.65625C8.28795 14.7436 15.8127 7.62669 25.0051 7.62669C34.1976 7.62669 41.7223 14.7436 42.354 23.7634H42.349Z"
      fill="white" />
    <path d="M42.354 23.7634H7.65625V26.2316H42.354V23.7634Z" fill="#1A54F4" />
  </g>
  <g clip-path="url(#clip1_0_1)">
    <path
      d="M111.243 37.4062V32.2353H88.307V48.3562C88.307 48.3778 88.2962 48.3993 88.2747 48.4209H85.0647C85.0647 48.4209 85 48.3886 85 48.3562V31.5364C85 30.3715 85.6925 29.5172 87.0774 28.9801C87.2327 28.9477 87.3945 28.9477 87.4851 28.9477H112.058C112.938 28.9477 113.695 29.4525 114.297 30.4944C114.452 30.8374 114.55 31.1869 114.55 31.5364V38.0986C114.55 39.1406 113.98 39.9625 112.848 40.4996C112.563 40.6549 112.155 40.7196 111.618 40.7196H106.233C106.486 41.0368 109.068 44.1237 113.987 49.9676L113.889 50H109.638C104.408 43.8131 101.762 40.7261 101.729 40.7261H90.8892V37.4126H111.243V37.4062Z"
      fill="white" />
    <path
      d="M120.432 41.3539V48.9257C120.432 48.9581 120.4 48.9904 120.335 48.9904H120.303C118.821 48.9904 117.785 48.2009 117.184 46.6541C117.151 46.3694 117.119 46.1494 117.119 45.994V31.9182C117.119 30.7857 117.779 29.8667 119.073 29.1742C119.449 29.0189 119.831 28.9542 120.206 28.9542H143.989C145.089 28.9542 145.976 29.556 146.701 30.7857C146.921 31.2257 147.018 31.7305 147.018 32.2677V45.6446C147.018 47.1913 146.261 48.2656 144.746 48.861C144.462 48.9581 144.151 48.9839 143.834 48.9839H143.802C143.737 48.9839 143.704 48.9516 143.704 48.9192V32.2288H120.426V38.0339H141.439V41.3474H120.426L120.432 41.3539Z"
      fill="white" />
    <path
      d="M152.901 45.6769H173.345C174.509 45.6769 175.422 45.0492 176.024 43.7549C176.121 43.4119 176.179 43.0624 176.179 42.7129V35.1993C176.179 33.8403 175.454 32.8954 174.005 32.3583C173.72 32.2612 173.248 32.2353 172.555 32.2353H149.587V29.0448C149.587 28.9801 149.62 28.9542 149.684 28.9542H173.565C175.17 28.9542 176.684 29.7114 178.101 31.2581C179.014 32.4877 179.486 33.782 179.486 35.0764V42.9006C179.486 44.855 178.541 46.5635 176.652 48.0132C175.519 48.6733 174.412 48.9904 173.377 48.9904H149.684C149.62 48.9904 149.587 48.9581 149.587 48.9257V35.7688H152.894V45.6769H152.901Z"
      fill="white" />
    <path
      d="M185.375 41.3539V48.9257C185.375 48.9581 185.343 48.9904 185.278 48.9904H185.246C183.764 48.9904 182.728 48.2009 182.126 46.6541C182.094 46.3694 182.062 46.1494 182.062 45.994V31.9182C182.062 30.7857 182.722 29.8667 184.016 29.1742C184.392 29.0189 184.773 28.9542 185.149 28.9542H208.932C210.032 28.9542 210.919 29.556 211.644 30.7857C211.864 31.2257 211.961 31.7305 211.961 32.2677V45.6446C211.961 47.1913 211.204 48.2656 209.689 48.861C209.405 48.9581 209.094 48.9839 208.777 48.9839H208.744C208.68 48.9839 208.647 48.9516 208.647 48.9192V32.2288H185.369V38.0339H206.382V41.3474H185.369L185.375 41.3539Z"
      fill="white" />
    <path
      d="M240.779 37.4062V32.2353H217.844V48.3562C217.844 48.3778 217.833 48.3993 217.811 48.4209H214.601C214.601 48.4209 214.537 48.3886 214.537 48.3562V31.5364C214.537 30.3715 215.229 29.5172 216.614 28.9801C216.769 28.9477 216.931 28.9477 217.022 28.9477H241.595C242.475 28.9477 243.232 29.4525 243.834 30.4944C243.989 30.8374 244.086 31.1869 244.086 31.5364V38.0986C244.086 39.1406 243.517 39.9625 242.384 40.4996C242.099 40.6549 241.692 40.7196 241.155 40.7196H235.77C236.023 41.0368 238.605 44.1237 243.523 49.9676L243.426 50H239.174C233.945 43.8131 231.298 40.7261 231.266 40.7261H220.426V37.4126H240.779V37.4062Z"
      fill="white" />
    <mask id="mask0_0_1" style="mask-type:luminance" maskUnits="userSpaceOnUse" x="85" y="0" width="18" height="23">
      <path
        d="M101.787 13.2216C102.577 14.2376 102.972 15.3961 102.972 16.6969C102.972 18.5801 102.312 20.0686 100.998 21.1688C99.6842 22.269 97.8527 22.819 95.5035 22.819H85.0259V0.323578H95.154C97.4385 0.323578 99.2312 0.847782 100.525 1.89619C101.82 2.9446 102.467 4.36189 102.467 6.16101C102.467 7.4877 102.118 8.58788 101.425 9.46155C100.733 10.3352 99.8071 10.95 98.6552 11.2866C99.956 11.5648 101.004 12.212 101.794 13.2281L101.787 13.2216ZM90.5009 9.42272H94.0927C94.9922 9.42272 95.6782 9.22857 96.1571 8.82733C96.636 8.43256 96.8755 7.85011 96.8755 7.07998C96.8755 6.30986 96.636 5.72094 96.1571 5.31969C95.6782 4.91198 94.9858 4.71136 94.0927 4.71136H90.5009V9.42272ZM96.6684 17.7712C97.1732 17.357 97.4191 16.7486 97.4191 15.9591C97.4191 15.1696 97.1602 14.5483 96.636 14.1017C96.1118 13.6552 95.3935 13.4287 94.4745 13.4287H90.5009V18.3989H94.5392C95.4582 18.3989 96.1701 18.1918 96.6684 17.7712Z"
        fill="white" />
    </mask>
    <g mask="url(#mask0_0_1)">
      <path d="M90.8374 13.4287H90.5073V18.3989H90.8374V13.4287Z" fill="#EFF3FE" />
      <path d="M91.1741 13.4287H90.8311V18.3989H91.1741V13.4287Z" fill="#EEF2FE" />
      <path d="M91.5168 13.4287H91.1738V18.3989H91.5168V13.4287Z" fill="#EDF2FE" />
      <path d="M91.8598 13.4287H91.5168V18.3989H91.8598V13.4287Z" fill="#ECF1FE" />
      <path d="M92.2029 13.4287H91.8599V18.3989H92.2029V13.4287Z" fill="#EBF0FE" />
      <path d="M92.5395 13.4287H92.1965V18.3989H92.5395V13.4287Z" fill="#EAEFFE" />
      <path d="M92.8825 13.4287H92.5396V18.3989H92.8825V13.4287Z" fill="#E9EFFE" />
      <path d="M93.2256 13.4287H92.8826V18.3989H93.2256V13.4287Z" fill="#E8EEFE" />
      <path d="M93.5686 13.4287H93.2256V18.3989H93.5686V13.4287Z" fill="#E7EDFE" />
      <path d="M93.9114 13.4287H93.5684V18.3989H93.9114V13.4287Z" fill="#E6ECFE" />
      <path d="M94.248 13.4287H93.905V18.3989H94.248V13.4287Z" fill="#E5ECFE" />
      <path d="M94.591 13.4287H94.248V18.3989H94.591V13.4287Z" fill="#E4EBFE" />
      <path d="M94.9341 13.4287H94.5911V18.3989H94.9341V13.4287Z" fill="#E3EAFE" />
      <path d="M95.2771 13.4287H94.9341V18.3989H95.2771V13.4287Z" fill="#E2E9FE" />
      <path d="M95.6201 13.4287H95.2771V18.3989H95.6201V13.4287Z" fill="#E1E9FE" />
      <path d="M95.9565 13.4287H95.6135V18.3989H95.9565V13.4287Z" fill="#E0E8FE" />
      <path d="M96.2995 13.4287H95.9565V18.3989H96.2995V13.4287Z" fill="#DFE7FD" />
      <path d="M96.6426 13.4287H96.2996V18.3989H96.6426V13.4287Z" fill="#DEE6FD" />
      <path d="M96.9856 13.4287H96.6426V18.3989H96.9856V13.4287Z" fill="#DDE6FD" />
      <path d="M97.3286 13.4287H96.9856V18.3989H97.3286V13.4287Z" fill="#DCE5FD" />
      <path d="M97.4256 13.4287H97.322V18.3989H97.4256V13.4287Z" fill="#DBE4FD" />
      <path d="M90.8374 4.71136H90.5073V9.42273H90.8374V4.71136Z" fill="#EFF3FE" />
      <path d="M91.1741 4.71136H90.8311V9.42273H91.1741V4.71136Z" fill="#EEF2FE" />
      <path d="M91.5168 4.71136H91.1738V9.42273H91.5168V4.71136Z" fill="#EDF2FE" />
      <path d="M91.8598 4.71136H91.5168V9.42273H91.8598V4.71136Z" fill="#ECF1FE" />
      <path d="M92.2029 4.71136H91.8599V9.42273H92.2029V4.71136Z" fill="#EBF0FE" />
      <path d="M92.5395 4.71136H92.1965V9.42273H92.5395V4.71136Z" fill="#EAEFFE" />
      <path d="M92.8825 4.71136H92.5396V9.42273H92.8825V4.71136Z" fill="#E9EFFE" />
      <path d="M93.2256 4.71136H92.8826V9.42273H93.2256V4.71136Z" fill="#E8EEFE" />
      <path d="M93.5686 4.71136H93.2256V9.42273H93.5686V4.71136Z" fill="#E7EDFE" />
      <path d="M93.9114 4.71136H93.5684V9.42273H93.9114V4.71136Z" fill="#E6ECFE" />
      <path d="M94.248 4.71136H93.905V9.42273H94.248V4.71136Z" fill="#E5ECFE" />
      <path d="M94.591 4.71136H94.248V9.42273H94.591V4.71136Z" fill="#E4EBFE" />
      <path d="M94.9341 4.71136H94.5911V9.42273H94.9341V4.71136Z" fill="#E3EAFE" />
      <path d="M95.2771 4.71136H94.9341V9.42273H95.2771V4.71136Z" fill="#E2E9FE" />
      <path d="M95.6201 4.71136H95.2771V9.42273H95.6201V4.71136Z" fill="#E1E9FE" />
      <path d="M95.9565 4.71136H95.6135V9.42273H95.9565V4.71136Z" fill="#E0E8FE" />
      <path d="M96.2995 4.71136H95.9565V9.42273H96.2995V4.71136Z" fill="#DFE7FD" />
      <path d="M96.6426 4.71136H96.2996V9.42273H96.6426V4.71136Z" fill="#DEE6FD" />
      <path d="M96.8885 4.71136H96.6426V9.42273H96.8885V4.71136Z" fill="#DDE6FD" />
      <path d="M85.3689 0.323578H85.0259V22.8255H85.3689V0.323578Z" fill="white" />
      <path d="M85.7119 0.323578H85.3689V22.8255H85.7119V0.323578Z" fill="#FEFEFF" />
      <path d="M86.0483 0.323578H85.7053V22.8255H86.0483V0.323578Z" fill="#FDFEFF" />
      <path d="M86.3913 0.323578H86.0483V22.8255H86.3913V0.323578Z" fill="#FCFDFF" />
      <path d="M86.7344 0.323578H86.3914V22.8255H86.7344V0.323578Z" fill="#FBFCFF" />
      <path d="M87.0774 0.323578H86.7344V22.8255H87.0774V0.323578Z" fill="#FAFBFF" />
      <path d="M87.4138 0.323578H87.0708V22.8255H87.4138V0.323578Z" fill="#F9FBFF" />
      <path d="M87.7568 0.323578H87.4138V22.8255H87.7568V0.323578Z" fill="#F8FAFF" />
      <path d="M88.0998 0.323578H87.7568V22.8255H88.0998V0.323578Z" fill="#F7F9FF" />
      <path d="M88.4429 0.323578H88.0999V22.8255H88.4429V0.323578Z" fill="#F6F8FF" />
      <path d="M88.7859 0.323578H88.4429V22.8255H88.7859V0.323578Z" fill="#F5F8FF" />
      <path d="M89.1225 0.323578H88.7795V22.8255H89.1225V0.323578Z" fill="#F4F7FE" />
      <path d="M89.4653 0.323578H89.1223V22.8255H89.4653V0.323578Z" fill="#F3F6FE" />
      <path d="M89.8083 0.323578H89.4653V22.8255H89.8083V0.323578Z" fill="#F2F5FE" />
      <path d="M90.1513 0.323578H89.8083V22.8255H90.1513V0.323578Z" fill="#F1F5FE" />
      <path d="M90.4944 0.323578H90.1514V22.8255H90.4944V0.323578Z" fill="#F0F4FE" />
      <path d="M90.831 0.323578H90.488V22.8255H90.831V0.323578Z" fill="#EFF3FE" />
      <path d="M91.1741 0.323578H90.8311V22.8255H91.1741V0.323578Z" fill="#EEF2FE" />
      <path d="M91.5168 0.323578H91.1738V22.8255H91.5168V0.323578Z" fill="#EDF2FE" />
      <path d="M91.8598 0.323578H91.5168V22.8255H91.8598V0.323578Z" fill="#ECF1FE" />
      <path d="M92.2029 0.323578H91.8599V22.8255H92.2029V0.323578Z" fill="#EBF0FE" />
      <path d="M92.5395 0.323578H92.1965V22.8255H92.5395V0.323578Z" fill="#EAEFFE" />
      <path d="M92.8825 0.323578H92.5396V22.8255H92.8825V0.323578Z" fill="#E9EFFE" />
      <path d="M93.2256 0.323578H92.8826V22.8255H93.2256V0.323578Z" fill="#E8EEFE" />
      <path d="M93.5686 0.323578H93.2256V22.8255H93.5686V0.323578Z" fill="#E7EDFE" />
      <path d="M93.9114 0.323578H93.5684V22.8255H93.9114V0.323578Z" fill="#E6ECFE" />
      <path d="M94.248 0.323578H93.905V22.8255H94.248V0.323578Z" fill="#E5ECFE" />
      <path d="M94.591 0.323578H94.248V22.8255H94.591V0.323578Z" fill="#E4EBFE" />
      <path d="M94.9341 0.323578H94.5911V22.8255H94.9341V0.323578Z" fill="#E3EAFE" />
      <path d="M95.2771 0.323578H94.9341V22.8255H95.2771V0.323578Z" fill="#E2E9FE" />
      <path d="M95.6201 0.323578H95.2771V22.8255H95.6201V0.323578Z" fill="#E1E9FE" />
      <path d="M95.9565 0.323578H95.6135V22.8255H95.9565V0.323578Z" fill="#E0E8FE" />
      <path d="M96.2995 0.323578H95.9565V22.8255H96.2995V0.323578Z" fill="#DFE7FD" />
      <path d="M96.6426 0.323578H96.2996V22.8255H96.6426V0.323578Z" fill="#DEE6FD" />
      <path d="M96.9856 0.323578H96.6426V22.8255H96.9856V0.323578Z" fill="#DDE6FD" />
      <path d="M97.3286 0.323578H96.9856V22.8255H97.3286V0.323578Z" fill="#DCE5FD" />
      <path d="M97.665 0.323578H97.322V22.8255H97.665V0.323578Z" fill="#DBE4FD" />
      <path d="M98.008 0.323578H97.665V22.8255H98.008V0.323578Z" fill="#DAE3FD" />
      <path d="M98.3511 0.323578H98.0081V22.8255H98.3511V0.323578Z" fill="#D9E3FD" />
      <path d="M98.6941 0.323578H98.3511V22.8255H98.6941V0.323578Z" fill="#D8E2FD" />
      <path d="M99.0371 0.323578H98.6941V22.8255H99.0371V0.323578Z" fill="#D7E1FD" />
      <path d="M99.3735 0.323578H99.0305V22.8255H99.3735V0.323578Z" fill="#D6E0FD" />
      <path d="M99.7165 0.323578H99.3735V22.8255H99.7165V0.323578Z" fill="#D5E0FD" />
      <path d="M100.06 0.323578H99.7166V22.8255H100.06V0.323578Z" fill="#D4DFFD" />
      <path d="M100.403 0.323578H100.06V22.8255H100.403V0.323578Z" fill="#D3DEFD" />
      <path d="M100.746 0.323578H100.403V22.8255H100.746V0.323578Z" fill="#D2DDFD" />
      <path d="M101.082 0.323578H100.739V22.8255H101.082V0.323578Z" fill="#D1DDFD" />
      <path d="M101.425 0.323578H101.082V22.8255H101.425V0.323578Z" fill="#D0DCFD" />
      <path d="M101.768 0.323578H101.425V22.8255H101.768V0.323578Z" fill="#CFDBFD" />
      <path d="M102.111 0.323578H101.768V22.8255H102.111V0.323578Z" fill="#CEDAFD" />
      <path d="M102.454 0.323578H102.111V22.8255H102.454V0.323578Z" fill="#CDDAFD" />
      <path d="M102.791 0.323578H102.448V22.8255H102.791V0.323578Z" fill="#CCD9FD" />
      <path d="M102.972 0.323578H102.791V22.8255H102.972V0.323578Z" fill="#CBD8FC" />
    </g>
    <mask id="mask1_0_1" style="mask-type:luminance" maskUnits="userSpaceOnUse" x="104" y="0" width="24" height="23">
      <path
        d="M120.154 18.8455H111.754L110.408 22.819H104.667L112.815 0.323578H119.164L127.305 22.8255H121.5L120.154 18.8519V18.8455ZM118.743 14.613L115.954 6.37457L113.197 14.613H118.743Z"
        fill="white" />
    </mask>
    <g mask="url(#mask1_0_1)">
      <path d="M113.385 6.38104H113.203V14.6195H113.385V6.38104Z" fill="#ADC2FB" />
      <path d="M113.728 6.38104H113.385V14.6195H113.728V6.38104Z" fill="#ACC1FB" />
      <path d="M114.071 6.38104H113.728V14.6195H114.071V6.38104Z" fill="#ABC0FB" />
      <path d="M114.407 6.38104H114.064V14.6195H114.407V6.38104Z" fill="#AABFFB" />
      <path d="M114.75 6.38104H114.407V14.6195H114.75V6.38104Z" fill="#A9BFFB" />
      <path d="M115.093 6.38104H114.75V14.6195H115.093V6.38104Z" fill="#A8BEFB" />
      <path d="M115.436 6.38104H115.093V14.6195H115.436V6.38104Z" fill="#A7BDFB" />
      <path d="M115.779 6.38104H115.436V14.6195H115.779V6.38104Z" fill="#A6BCFB" />
      <path d="M116.116 6.38104H115.773V14.6195H116.116V6.38104Z" fill="#A5BCFB" />
      <path d="M116.459 6.38104H116.116V14.6195H116.459V6.38104Z" fill="#A4BBFB" />
      <path d="M116.802 6.38104H116.459V14.6195H116.802V6.38104Z" fill="#A3BAFB" />
      <path d="M117.145 6.38104H116.802V14.6195H117.145V6.38104Z" fill="#A2B9FB" />
      <path d="M117.488 6.38104H117.145V14.6195H117.488V6.38104Z" fill="#A1B9FA" />
      <path d="M117.824 6.38104H117.481V14.6195H117.824V6.38104Z" fill="#A0B8FA" />
      <path d="M118.167 6.38104H117.824V14.6195H118.167V6.38104Z" fill="#9FB7FA" />
      <path d="M118.51 6.38104H118.167V14.6195H118.51V6.38104Z" fill="#9EB6FA" />
      <path d="M118.75 6.38104H118.51V14.6195H118.75V6.38104Z" fill="#9DB6FA" />
      <path d="M104.842 0.323578H104.674V22.8255H104.842V0.323578Z" fill="#C6D4FC" />
      <path d="M105.185 0.323578H104.842V22.8255H105.185V0.323578Z" fill="#C5D4FC" />
      <path d="M105.528 0.323578H105.185V22.8255H105.528V0.323578Z" fill="#C4D3FC" />
      <path d="M105.871 0.323578H105.528V22.8255H105.871V0.323578Z" fill="#C3D2FC" />
      <path d="M106.207 0.323578H105.865V22.8255H106.207V0.323578Z" fill="#C2D1FC" />
      <path d="M106.551 0.323578H106.208V22.8255H106.551V0.323578Z" fill="#C1D1FC" />
      <path d="M106.894 0.323578H106.551V22.8255H106.894V0.323578Z" fill="#C0D0FC" />
      <path d="M107.237 0.323578H106.894V22.8255H107.237V0.323578Z" fill="#BFCFFC" />
      <path d="M107.58 0.323578H107.237V22.8255H107.58V0.323578Z" fill="#BECEFC" />
      <path d="M107.916 0.323578H107.573V22.8255H107.916V0.323578Z" fill="#BDCEFC" />
      <path d="M108.259 0.323578H107.916V22.8255H108.259V0.323578Z" fill="#BCCDFC" />
      <path d="M108.602 0.323578H108.259V22.8255H108.602V0.323578Z" fill="#BBCCFC" />
      <path d="M108.945 0.323578H108.602V22.8255H108.945V0.323578Z" fill="#BACBFC" />
      <path d="M109.288 0.323578H108.945V22.8255H109.288V0.323578Z" fill="#B9CBFC" />
      <path d="M109.625 0.323578H109.282V22.8255H109.625V0.323578Z" fill="#B8CAFC" />
      <path d="M109.968 0.323578H109.625V22.8255H109.968V0.323578Z" fill="#B7C9FC" />
      <path d="M110.311 0.323578H109.968V22.8255H110.311V0.323578Z" fill="#B6C8FB" />
      <path d="M110.654 0.323578H110.311V22.8255H110.654V0.323578Z" fill="#B5C8FB" />
      <path d="M110.997 0.323578H110.654V22.8255H110.997V0.323578Z" fill="#B4C7FB" />
      <path d="M111.333 0.323578H110.99V22.8255H111.333V0.323578Z" fill="#B3C6FB" />
      <path d="M111.676 0.323578H111.333V22.8255H111.676V0.323578Z" fill="#B2C5FB" />
      <path d="M112.019 0.323578H111.676V22.8255H112.019V0.323578Z" fill="#B1C5FB" />
      <path d="M112.362 0.323578H112.019V22.8255H112.362V0.323578Z" fill="#B0C4FB" />
      <path d="M112.705 0.323578H112.362V22.8255H112.705V0.323578Z" fill="#AFC3FB" />
      <path d="M113.042 0.323578H112.699V22.8255H113.042V0.323578Z" fill="#AEC2FB" />
      <path d="M113.385 0.323578H113.042V22.8255H113.385V0.323578Z" fill="#ADC2FB" />
      <path d="M113.728 0.323578H113.385V22.8255H113.728V0.323578Z" fill="#ACC1FB" />
      <path d="M114.071 0.323578H113.728V22.8255H114.071V0.323578Z" fill="#ABC0FB" />
      <path d="M114.407 0.323578H114.064V22.8255H114.407V0.323578Z" fill="#AABFFB" />
      <path d="M114.75 0.323578H114.407V22.8255H114.75V0.323578Z" fill="#A9BFFB" />
      <path d="M115.093 0.323578H114.75V22.8255H115.093V0.323578Z" fill="#A8BEFB" />
      <path d="M115.436 0.323578H115.093V22.8255H115.436V0.323578Z" fill="#A7BDFB" />
      <path d="M115.779 0.323578H115.436V22.8255H115.779V0.323578Z" fill="#A6BCFB" />
      <path d="M116.116 0.323578H115.773V22.8255H116.116V0.323578Z" fill="#A5BCFB" />
      <path d="M116.459 0.323578H116.116V22.8255H116.459V0.323578Z" fill="#A4BBFB" />
      <path d="M116.802 0.323578H116.459V22.8255H116.802V0.323578Z" fill="#A3BAFB" />
      <path d="M117.145 0.323578H116.802V22.8255H117.145V0.323578Z" fill="#A2B9FB" />
      <path d="M117.488 0.323578H117.145V22.8255H117.488V0.323578Z" fill="#A1B9FA" />
      <path d="M117.824 0.323578H117.481V22.8255H117.824V0.323578Z" fill="#A0B8FA" />
      <path d="M118.167 0.323578H117.824V22.8255H118.167V0.323578Z" fill="#9FB7FA" />
      <path d="M118.51 0.323578H118.167V22.8255H118.51V0.323578Z" fill="#9EB6FA" />
      <path d="M118.853 0.323578H118.51V22.8255H118.853V0.323578Z" fill="#9DB6FA" />
      <path d="M119.196 0.323578H118.853V22.8255H119.196V0.323578Z" fill="#9CB5FA" />
      <path d="M119.533 0.323578H119.19V22.8255H119.533V0.323578Z" fill="#9BB4FA" />
      <path d="M119.876 0.323578H119.533V22.8255H119.876V0.323578Z" fill="#9AB3FA" />
      <path d="M120.219 0.323578H119.876V22.8255H120.219V0.323578Z" fill="#99B3FA" />
      <path d="M120.562 0.323578H120.219V22.8255H120.562V0.323578Z" fill="#98B2FA" />
      <path d="M120.905 0.323578H120.562V22.8255H120.905V0.323578Z" fill="#97B1FA" />
      <path d="M121.241 0.323578H120.898V22.8255H121.241V0.323578Z" fill="#96B0FA" />
      <path d="M121.584 0.323578H121.241V22.8255H121.584V0.323578Z" fill="#95B0FA" />
      <path d="M121.927 0.323578H121.584V22.8255H121.927V0.323578Z" fill="#94AFFA" />
      <path d="M122.27 0.323578H121.927V22.8255H122.27V0.323578Z" fill="#93AEFA" />
      <path d="M122.613 0.323578H122.27V22.8255H122.613V0.323578Z" fill="#92ADFA" />
      <path d="M122.95 0.323578H122.607V22.8255H122.95V0.323578Z" fill="#91ADFA" />
      <path d="M123.293 0.323578H122.95V22.8255H123.293V0.323578Z" fill="#90ACFA" />
      <path d="M123.636 0.323578H123.293V22.8255H123.636V0.323578Z" fill="#8FABFA" />
      <path d="M123.979 0.323578H123.636V22.8255H123.979V0.323578Z" fill="#8EAAFA" />
      <path d="M124.322 0.323578H123.979V22.8255H124.322V0.323578Z" fill="#8DAAFA" />
      <path d="M124.658 0.323578H124.315V22.8255H124.658V0.323578Z" fill="#8BA9F9" />
      <path d="M125.001 0.323578H124.658V22.8255H125.001V0.323578Z" fill="#8AA8F9" />
      <path d="M125.344 0.323578H125.001V22.8255H125.344V0.323578Z" fill="#89A7F9" />
      <path d="M125.687 0.323578H125.344V22.8255H125.687V0.323578Z" fill="#88A7F9" />
      <path d="M126.03 0.323578H125.687V22.8255H126.03V0.323578Z" fill="#87A6F9" />
      <path d="M126.367 0.323578H126.024V22.8255H126.367V0.323578Z" fill="#86A5F9" />
      <path d="M126.71 0.323578H126.367V22.8255H126.71V0.323578Z" fill="#85A4F9" />
      <path d="M127.053 0.323578H126.71V22.8255H127.053V0.323578Z" fill="#84A4F9" />
      <path d="M127.305 0.323578H127.053V22.8255H127.305V0.323578Z" fill="#83A3F9" />
    </g>
    <mask id="mask2_0_1" style="mask-type:luminance" maskUnits="userSpaceOnUse" x="129" y="0" width="18" height="24">
      <path
        d="M133.492 22.2495C132.191 21.7124 131.149 20.9229 130.366 19.8745C129.583 18.826 129.175 17.5641 129.13 16.095H134.961C135.045 16.9298 135.336 17.5641 135.828 18.0041C136.32 18.4442 136.961 18.6578 137.75 18.6578C138.54 18.6578 139.206 18.4701 139.672 18.0947C140.145 17.7194 140.378 17.2017 140.378 16.5415C140.378 15.985 140.19 15.5255 139.815 15.1631C139.439 14.8007 138.98 14.503 138.436 14.2635C137.893 14.0305 137.116 13.7587 136.113 13.461C134.657 13.0145 133.473 12.5615 132.554 12.1149C131.635 11.6684 130.845 11.0018 130.179 10.1281C129.518 9.25447 129.182 8.10898 129.182 6.69816C129.182 4.60135 129.939 2.96402 131.46 1.77971C132.974 0.595392 134.955 0 137.388 0C139.821 0 141.866 0.595392 143.381 1.77971C144.895 2.96402 145.711 4.61429 145.814 6.73052H139.886C139.841 6.0057 139.575 5.42972 139.084 5.01553C138.592 4.60135 137.964 4.38778 137.194 4.38778C136.534 4.38778 135.997 4.56252 135.589 4.91846C135.181 5.26793 134.981 5.77919 134.981 6.4393C134.981 7.16412 135.323 7.73363 136.003 8.13487C136.689 8.54258 137.757 8.97619 139.206 9.44862C140.663 9.94046 141.84 10.4129 142.746 10.8594C143.653 11.306 144.442 11.9596 145.102 12.8139C145.762 13.6681 146.099 14.7683 146.099 16.1144C146.099 17.4605 145.775 18.5607 145.122 19.6091C144.468 20.6575 143.523 21.4924 142.287 22.1072C141.044 22.7285 139.582 23.0391 137.893 23.0391C136.204 23.0391 134.773 22.7738 133.473 22.2366L133.492 22.2495Z"
        fill="white" />
    </mask>
    <g mask="url(#mask2_0_1)">
      <path d="M129.441 0H129.13V23.0456H129.441V0Z" fill="#7D9EF9" />
      <path d="M129.784 0H129.441V23.0456H129.784V0Z" fill="#7C9EF9" />
      <path d="M130.127 0H129.784V23.0456H130.127V0Z" fill="#7B9DF9" />
      <path d="M130.47 0H130.127V23.0456H130.47V0Z" fill="#7A9CF9" />
      <path d="M130.813 0H130.47V23.0456H130.813V0Z" fill="#799BF9" />
      <path d="M131.156 0H130.813V23.0456H131.156V0Z" fill="#789BF9" />
      <path d="M131.492 0H131.149V23.0456H131.492V0Z" fill="#779AF8" />
      <path d="M131.835 0H131.492V23.0456H131.835V0Z" fill="#7699F8" />
      <path d="M132.178 0H131.835V23.0456H132.178V0Z" fill="#7598F8" />
      <path d="M132.521 0H132.178V23.0456H132.521V0Z" fill="#7498F8" />
      <path d="M132.864 0H132.521V23.0456H132.864V0Z" fill="#7397F8" />
      <path d="M133.201 0H132.858V23.0456H133.201V0Z" fill="#7296F8" />
      <path d="M133.544 0H133.201V23.0456H133.544V0Z" fill="#7195F8" />
      <path d="M133.887 0H133.544V23.0456H133.887V0Z" fill="#7095F8" />
      <path d="M134.23 0H133.887V23.0456H134.23V0Z" fill="#6F94F8" />
      <path d="M134.573 0H134.23V23.0456H134.573V0Z" fill="#6E93F8" />
      <path d="M134.909 0H134.566V23.0456H134.909V0Z" fill="#6D92F8" />
      <path d="M135.252 0H134.909V23.0456H135.252V0Z" fill="#6C92F8" />
      <path d="M135.595 0H135.252V23.0456H135.595V0Z" fill="#6B91F8" />
      <path d="M135.938 0H135.595V23.0456H135.938V0Z" fill="#6A90F8" />
      <path d="M136.281 0H135.938V23.0456H136.281V0Z" fill="#698FF8" />
      <path d="M136.618 0H136.275V23.0456H136.618V0Z" fill="#688FF8" />
      <path d="M136.961 0H136.618V23.0456H136.961V0Z" fill="#678EF8" />
      <path d="M137.304 0H136.961V23.0456H137.304V0Z" fill="#668DF8" />
      <path d="M137.647 0H137.304V23.0456H137.647V0Z" fill="#658CF8" />
      <path d="M137.99 0H137.647V23.0456H137.99V0Z" fill="#648CF8" />
      <path d="M138.326 0H137.983V23.0456H138.326V0Z" fill="#638BF8" />
      <path d="M138.669 0H138.326V23.0456H138.669V0Z" fill="#628AF7" />
      <path d="M139.012 0H138.669V23.0456H139.012V0Z" fill="#6189F7" />
      <path d="M139.355 0H139.012V23.0456H139.355V0Z" fill="#6089F7" />
      <path d="M139.698 0H139.355V23.0456H139.698V0Z" fill="#5F88F7" />
      <path d="M140.035 0H139.692V23.0456H140.035V0Z" fill="#5E87F7" />
      <path d="M140.378 0H140.035V23.0456H140.378V0Z" fill="#5D86F7" />
      <path d="M140.721 0H140.378V23.0456H140.721V0Z" fill="#5C86F7" />
      <path d="M141.064 0H140.721V23.0456H141.064V0Z" fill="#5B85F7" />
      <path d="M141.4 0H141.057V23.0456H141.4V0Z" fill="#5A84F7" />
      <path d="M141.743 0H141.4V23.0456H141.743V0Z" fill="#5983F7" />
      <path d="M142.086 0H141.743V23.0456H142.086V0Z" fill="#5883F7" />
      <path d="M142.429 0H142.086V23.0456H142.429V0Z" fill="#5782F7" />
      <path d="M142.772 0H142.429V23.0456H142.772V0Z" fill="#5681F7" />
      <path d="M143.109 0H142.766V23.0456H143.109V0Z" fill="#5580F7" />
      <path d="M143.452 0H143.109V23.0456H143.452V0Z" fill="#5480F7" />
      <path d="M143.795 0H143.452V23.0456H143.795V0Z" fill="#537FF7" />
      <path d="M144.138 0H143.795V23.0456H144.138V0Z" fill="#527EF7" />
      <path d="M144.481 0H144.138V23.0456H144.481V0Z" fill="#517DF7" />
      <path d="M144.817 0H144.474V23.0456H144.817V0Z" fill="#507DF7" />
      <path d="M145.16 0H144.817V23.0456H145.16V0Z" fill="#4F7CF7" />
      <path d="M145.503 0H145.16V23.0456H145.503V0Z" fill="#4E7BF7" />
      <path d="M145.846 0H145.503V23.0456H145.846V0Z" fill="#4D7AF6" />
      <path d="M146.125 0H145.846V23.0456H146.125V0Z" fill="#4C7AF6" />
    </g>
    <mask id="mask3_0_1" style="mask-type:luminance" maskUnits="userSpaceOnUse" x="149" y="0" width="15" height="23">
      <path
        d="M154.971 4.71136V9.26093H162.31V13.4934H154.971V18.4313H163.275V22.8255H149.49V0.323578H163.275V4.71783H154.971V4.71136Z"
        fill="white" />
    </mask>
    <g mask="url(#mask3_0_1)">
      <path d="M149.6 0.323578H149.483V22.8255H149.6V0.323578Z" fill="#4272F6" />
      <path d="M149.943 0.323578H149.6V22.8255H149.943V0.323578Z" fill="#4171F6" />
      <path d="M150.286 0.323578H149.943V22.8255H150.286V0.323578Z" fill="#4071F6" />
      <path d="M150.629 0.323578H150.286V22.8255H150.629V0.323578Z" fill="#3F70F6" />
      <path d="M150.972 0.323578H150.629V22.8255H150.972V0.323578Z" fill="#3E6FF6" />
      <path d="M151.315 0.323578H150.972V22.8255H151.315V0.323578Z" fill="#3D6EF6" />
      <path d="M151.651 0.323578H151.308V22.8255H151.651V0.323578Z" fill="#3C6EF6" />
      <path d="M151.994 0.323578H151.651V22.8255H151.994V0.323578Z" fill="#3B6DF6" />
      <path d="M152.337 0.323578H151.994V22.8255H152.337V0.323578Z" fill="#3A6CF6" />
      <path d="M152.68 0.323578H152.337V22.8255H152.68V0.323578Z" fill="#396BF5" />
      <path d="M153.023 0.323578H152.68V22.8255H153.023V0.323578Z" fill="#386BF5" />
      <path d="M153.36 0.323578H153.017V22.8255H153.36V0.323578Z" fill="#376AF5" />
      <path d="M153.703 0.323578H153.36V22.8255H153.703V0.323578Z" fill="#3669F5" />
      <path d="M154.046 0.323578H153.703V22.8255H154.046V0.323578Z" fill="#3568F5" />
      <path d="M154.389 0.323578H154.046V22.8255H154.389V0.323578Z" fill="#3468F5" />
      <path d="M154.732 0.323578H154.389V22.8255H154.732V0.323578Z" fill="#3367F5" />
      <path d="M155.068 0.323578H154.725V22.8255H155.068V0.323578Z" fill="#3266F5" />
      <path d="M155.411 0.323578H155.068V22.8255H155.411V0.323578Z" fill="#3165F5" />
      <path d="M155.754 0.323578H155.411V22.8255H155.754V0.323578Z" fill="#3065F5" />
      <path d="M156.097 0.323578H155.754V22.8255H156.097V0.323578Z" fill="#2F64F5" />
      <path d="M156.44 0.323578H156.097V22.8255H156.44V0.323578Z" fill="#2E63F5" />
      <path d="M156.777 0.323578H156.434V22.8255H156.777V0.323578Z" fill="#2D62F5" />
      <path d="M157.12 0.323578H156.777V22.8255H157.12V0.323578Z" fill="#2C62F5" />
      <path d="M157.463 0.323578H157.12V22.8255H157.463V0.323578Z" fill="#2B61F5" />
      <path d="M157.806 0.323578H157.463V22.8255H157.806V0.323578Z" fill="#2A60F5" />
      <path d="M158.149 0.323578H157.806V22.8255H158.149V0.323578Z" fill="#295FF5" />
      <path d="M158.486 0.323578H158.143V22.8255H158.486V0.323578Z" fill="#285FF5" />
      <path d="M158.828 0.323578H158.485V22.8255H158.828V0.323578Z" fill="#275EF5" />
      <path d="M159.171 0.323578H158.828V22.8255H159.171V0.323578Z" fill="#265DF5" />
      <path d="M159.514 0.323578H159.171V22.8255H159.514V0.323578Z" fill="#255CF5" />
      <path d="M159.857 0.323578H159.514V22.8255H159.857V0.323578Z" fill="#245CF4" />
      <path d="M160.194 0.323578H159.851V22.8255H160.194V0.323578Z" fill="#235BF4" />
      <path d="M160.537 0.323578H160.194V22.8255H160.537V0.323578Z" fill="#225AF4" />
      <path d="M160.88 0.323578H160.537V22.8255H160.88V0.323578Z" fill="#2159F4" />
      <path d="M161.223 0.323578H160.88V22.8255H161.223V0.323578Z" fill="#2059F4" />
      <path d="M161.566 0.323578H161.223V22.8255H161.566V0.323578Z" fill="#1F58F4" />
      <path d="M161.903 0.323578H161.56V22.8255H161.903V0.323578Z" fill="#1E57F4" />
      <path d="M162.246 0.323578H161.903V22.8255H162.246V0.323578Z" fill="#1D56F4" />
      <path d="M162.589 0.323578H162.246V22.8255H162.589V0.323578Z" fill="#1C56F4" />
      <path d="M162.931 0.323578H162.588V22.8255H162.931V0.323578Z" fill="#1B55F4" />
      <path d="M163.274 0.323578H162.931V22.8255H163.274V0.323578Z" fill="#1A54F4" />
    </g>
  </g>
  <defs>
    <clipPath id="clip0_0_1">
      <rect width="50" height="50" fill="white" />
    </clipPath>
    <clipPath id="clip1_0_1">
      <rect width="159.086" height="50" fill="white" transform="translate(85)" />
    </clipPath>
  </defs>
</svg>