<svg width="21" height="19" viewBox="0 0 21 19" fill="none" xmlns="http://www.w3.org/2000/svg">
  <path
    d="M6.16186 7.73917L6.71118 7.73917C10.8264 7.73917 14.9405 7.73682 19.0557 7.74035C20.3081 7.74152 21.1462 8.74755 20.8786 9.90735C20.6896 10.7267 19.9877 11.2515 19.0592 11.2526C15.3548 11.255 11.6504 11.2526 7.94481 11.2526C7.38023 11.2526 6.81565 11.2526 6.1642 11.2526C6.33205 11.4322 6.433 11.5485 6.54098 11.6565C7.69949 12.8174 8.86387 13.9725 10.0177 15.1382C10.5353 15.6618 10.7032 16.2933 10.4532 16.9941C10.2102 17.6762 9.70077 18.0624 8.98595 18.1516C8.44601 18.2185 7.96477 18.0471 7.58212 17.6656C5.25805 15.3507 2.93282 13.0381 0.627532 10.7056C-0.0579503 10.0118 -0.0614711 8.98232 0.624011 8.28855C2.9293 5.95485 5.24866 3.63642 7.57977 1.32972C8.28403 0.632426 9.35216 0.660598 10.033 1.33089C10.729 2.01527 10.7548 3.09056 10.0482 3.81485C8.89322 4.99931 7.71241 6.15911 6.54333 7.33066C6.43417 7.43983 6.33205 7.55605 6.16186 7.738L6.16186 7.73917Z"
    fill="white" />
</svg>