<svg width="21" height="19" viewBox="0 0 21 19" fill="none" xmlns="http://www.w3.org/2000/svg">
  <path
    d="M14.8381 11.2608H14.2888C10.1736 11.2608 6.05952 11.2632 1.94428 11.2597C0.691867 11.2585 -0.146205 10.2525 0.121414 9.09265C0.310391 8.27327 1.01231 7.74854 1.94076 7.74737C5.64518 7.74502 9.3496 7.74737 13.0552 7.74737C13.6198 7.74737 14.1844 7.74737 14.8358 7.74737C14.6679 7.56776 14.567 7.45155 14.459 7.34355C13.3005 6.18257 12.1361 5.02746 10.9823 3.86178C10.4647 3.33822 10.2968 2.70667 10.5468 2.00586C10.7898 1.32383 11.2992 0.937614 12.0141 0.848399C12.554 0.781487 13.0352 0.952875 13.4179 1.33439C15.7419 3.64931 18.0672 5.96187 20.3725 8.2944C21.058 8.98817 21.0615 10.0177 20.376 10.7114C18.0707 13.0451 15.7513 15.3636 13.4202 17.6703C12.716 18.3676 11.6478 18.3394 10.9671 17.6691C10.271 16.9847 10.2452 15.9094 10.9518 15.1852C12.1068 14.0007 13.2876 12.8409 14.4567 11.6693C14.5658 11.5602 14.6679 11.444 14.8381 11.262V11.2608Z"
    fill="white" />
</svg>