<svg width="24" height="26" viewBox="0 0 24 26" fill="none" xmlns="http://www.w3.org/2000/svg">
<g clip-path="url(#clip0_642_2924)">
<path d="M11.5882 17.0703C14.8811 17.7982 17.3759 14.9147 16.6617 11.987C16.7561 11.987 16.8427 11.987 16.93 11.987C18.9117 11.987 20.8942 11.987 22.8759 11.987C23.6428 11.987 24.0491 12.39 24.0576 13.1537C24.1188 18.5065 20.3271 23.2031 15.0843 24.224C14.2848 24.3796 13.4586 24.4186 12.6422 24.4531C12.0113 24.4798 11.5817 24.0228 11.5804 23.4004C11.5751 21.3372 11.5784 19.2741 11.5784 17.2116C11.5784 17.1719 11.5836 17.1322 11.5882 17.0697V17.0703Z" fill="#1E9CD7"/>
<path d="M10.5296 24.2285C6.28545 23.5983 1.46579 19.7181 1.18584 13.5853C0.896125 7.22721 5.58558 2.33203 11.247 1.66927C17.5446 0.93229 22.8525 5.38737 23.8063 10.9687H21.7705C21.6103 10.4909 21.4873 10.0013 21.2868 9.54557C19.7236 5.99544 17.0114 3.98502 13.1357 3.71745C8.44495 3.39323 4.28675 6.69206 3.41175 11.3131C2.49574 16.151 5.45797 20.8457 10.2256 22.097C10.4638 22.1595 10.5472 22.248 10.5374 22.502C10.514 23.0755 10.5302 23.651 10.5302 24.2298L10.5296 24.2285Z" fill="#1E9CD7"/>
<path d="M19.5666 10.9382C18.872 10.9382 18.1825 10.9421 17.4937 10.931C17.4312 10.9297 17.3459 10.8444 17.3121 10.7773C16.5289 9.23893 15.2958 8.28646 13.6063 7.93295C10.7782 7.3418 7.87781 9.38672 7.49304 12.2396C7.17729 14.5794 8.26127 16.6432 10.3635 17.7168C10.4318 17.7513 10.5217 17.834 10.5223 17.8952C10.5334 18.584 10.5295 19.2734 10.5295 19.9675C7.9006 19.3001 5.2489 16.554 5.33224 12.8568C5.41492 9.17643 8.24435 6.07227 12.0022 5.77214C16.0581 5.44792 18.8654 8.2819 19.5673 10.9375L19.5666 10.9382Z" fill="#1E9CD7"/>
<path d="M12.5947 16.1048C10.8844 16.099 9.48725 14.7038 9.49441 13.0078C9.50157 11.2813 10.9091 9.89258 12.6422 9.903C14.3525 9.91341 15.7412 11.3229 15.7333 13.0404C15.7262 14.7246 14.3063 16.11 12.5947 16.1042V16.1048Z" fill="#1E9CD7"/>
</g>
<defs>
<clipPath id="clip0_642_2924">
<rect width="25" height="25" fill="white" transform="translate(0.0861816 0.5)"/>
</clipPath>
</defs>
</svg>
